<svg xmlns="http://www.w3.org/2000/svg" xmlns:xlink="http://www.w3.org/1999/xlink" width="500" zoomAndPan="magnify" viewBox="0 0 375 374.999991" height="500" preserveAspectRatio="xMidYMid meet" version="1.0"><defs><g/><clipPath id="cec8139708"><path d="M 148 96.488281 L 227 96.488281 L 227 178.238281 L 148 178.238281 Z M 148 96.488281 " clip-rule="nonzero"/></clipPath><clipPath id="e543c9ba19"><path d="M 136.035156 130 L 145 130 L 145 160 L 136.035156 160 Z M 136.035156 130 " clip-rule="nonzero"/></clipPath><clipPath id="4b81052116"><path d="M 230 130 L 238.785156 130 L 238.785156 160 L 230 160 Z M 230 130 " clip-rule="nonzero"/></clipPath></defs><g fill="#6441a5" fill-opacity="1"><g transform="translate(89.80042, 220.350499)"><g><path d="M 21.421875 0.953125 C 17.578125 0.953125 13.847656 0.476562 10.234375 -0.46875 C 6.617188 -1.414062 3.679688 -2.679688 1.421875 -4.265625 L 5.828125 -14.171875 C 7.953125 -12.765625 10.414062 -11.628906 13.21875 -10.765625 C 16.019531 -9.910156 18.773438 -9.484375 21.484375 -9.484375 C 26.640625 -9.484375 29.21875 -10.773438 29.21875 -13.359375 C 29.21875 -14.710938 28.484375 -15.71875 27.015625 -16.375 C 25.546875 -17.03125 23.1875 -17.71875 19.9375 -18.4375 C 16.363281 -19.207031 13.378906 -20.03125 10.984375 -20.90625 C 8.585938 -21.789062 6.53125 -23.203125 4.8125 -25.140625 C 3.09375 -27.085938 2.234375 -29.710938 2.234375 -33.015625 C 2.234375 -35.910156 3.023438 -38.519531 4.609375 -40.84375 C 6.191406 -43.175781 8.550781 -45.019531 11.6875 -46.375 C 14.832031 -47.726562 18.6875 -48.40625 23.25 -48.40625 C 26.375 -48.40625 29.445312 -48.054688 32.46875 -47.359375 C 35.5 -46.660156 38.164062 -45.628906 40.46875 -44.265625 L 36.34375 -34.3125 C 31.820312 -36.75 27.4375 -37.96875 23.1875 -37.96875 C 20.519531 -37.96875 18.578125 -37.570312 17.359375 -36.78125 C 16.140625 -35.988281 15.53125 -34.957031 15.53125 -33.6875 C 15.53125 -32.425781 16.25 -31.476562 17.6875 -30.84375 C 19.132812 -30.21875 21.460938 -29.5625 24.671875 -28.875 C 28.296875 -28.113281 31.289062 -27.289062 33.65625 -26.40625 C 36.03125 -25.519531 38.085938 -24.117188 39.828125 -22.203125 C 41.566406 -20.285156 42.4375 -17.675781 42.4375 -14.375 C 42.4375 -11.53125 41.644531 -8.953125 40.0625 -6.640625 C 38.476562 -4.335938 36.101562 -2.492188 32.9375 -1.109375 C 29.78125 0.265625 25.941406 0.953125 21.421875 0.953125 Z M 21.421875 0.953125 "/></g></g></g><g fill="#6441a5" fill-opacity="1"><g transform="translate(128.102817, 220.350499)"><g><path d="M 52 -37.359375 C 56.519531 -37.359375 60.125 -36 62.8125 -33.28125 C 65.5 -30.570312 66.84375 -26.484375 66.84375 -21.015625 L 66.84375 0 L 53.96875 0 L 53.96875 -18.921875 C 53.96875 -21.492188 53.476562 -23.390625 52.5 -24.609375 C 51.53125 -25.828125 50.164062 -26.4375 48.40625 -26.4375 C 46.457031 -26.4375 44.894531 -25.757812 43.71875 -24.40625 C 42.550781 -23.050781 41.96875 -20.992188 41.96875 -18.234375 L 41.96875 0 L 29.078125 0 L 29.078125 -18.921875 C 29.078125 -23.929688 27.226562 -26.4375 23.53125 -26.4375 C 21.539062 -26.4375 19.957031 -25.757812 18.78125 -24.40625 C 17.601562 -23.050781 17.015625 -20.992188 17.015625 -18.234375 L 17.015625 0 L 4.140625 0 L 4.140625 -36.75 L 16.40625 -36.75 L 16.40625 -32.875 C 17.757812 -34.375 19.375 -35.492188 21.25 -36.234375 C 23.125 -36.984375 25.171875 -37.359375 27.390625 -37.359375 C 29.960938 -37.359375 32.265625 -36.882812 34.296875 -35.9375 C 36.335938 -34.988281 37.988281 -33.539062 39.25 -31.59375 C 40.695312 -33.445312 42.523438 -34.867188 44.734375 -35.859375 C 46.953125 -36.859375 49.375 -37.359375 52 -37.359375 Z M 52 -37.359375 "/></g></g></g><g fill="#6441a5" fill-opacity="1"><g transform="translate(193.386836, 220.350499)"><g><path d="M 19.796875 -37.359375 C 25.898438 -37.359375 30.554688 -35.96875 33.765625 -33.1875 C 36.972656 -30.40625 38.578125 -26.144531 38.578125 -20.40625 L 38.578125 0 L 26.578125 0 L 26.578125 -4.75 C 24.722656 -1.175781 21.109375 0.609375 15.734375 0.609375 C 12.878906 0.609375 10.410156 0.113281 8.328125 -0.875 C 6.253906 -1.875 4.6875 -3.21875 3.625 -4.90625 C 2.5625 -6.601562 2.03125 -8.539062 2.03125 -10.71875 C 2.03125 -14.195312 3.363281 -16.894531 6.03125 -18.8125 C 8.695312 -20.726562 12.8125 -21.6875 18.375 -21.6875 L 25.6875 -21.6875 C 25.46875 -25.582031 22.867188 -27.53125 17.890625 -27.53125 C 16.128906 -27.53125 14.34375 -27.242188 12.53125 -26.671875 C 10.726562 -26.109375 9.195312 -25.332031 7.9375 -24.34375 L 3.59375 -33.078125 C 5.625 -34.441406 8.097656 -35.492188 11.015625 -36.234375 C 13.929688 -36.984375 16.859375 -37.359375 19.796875 -37.359375 Z M 19.328125 -7.53125 C 20.816406 -7.53125 22.125 -7.890625 23.25 -8.609375 C 24.382812 -9.328125 25.195312 -10.390625 25.6875 -11.796875 L 25.6875 -14.984375 L 20.140625 -14.984375 C 16.390625 -14.984375 14.515625 -13.738281 14.515625 -11.25 C 14.515625 -10.125 14.941406 -9.222656 15.796875 -8.546875 C 16.648438 -7.867188 17.828125 -7.53125 19.328125 -7.53125 Z M 19.328125 -7.53125 "/></g></g></g><g fill="#6441a5" fill-opacity="1"><g transform="translate(230.401169, 220.350499)"><g><path d="M 16.40625 -32.34375 C 17.71875 -34.007812 19.421875 -35.257812 21.515625 -36.09375 C 23.617188 -36.9375 26.03125 -37.359375 28.75 -37.359375 L 28.75 -25.765625 C 27.570312 -25.898438 26.597656 -25.96875 25.828125 -25.96875 C 23.066406 -25.96875 20.90625 -25.21875 19.34375 -23.71875 C 17.789062 -22.226562 17.015625 -19.945312 17.015625 -16.875 L 17.015625 0 L 4.140625 0 L 4.140625 -36.75 L 16.40625 -36.75 Z M 16.40625 -32.34375 "/></g></g></g><g fill="#6441a5" fill-opacity="1"><g transform="translate(254.873798, 220.350499)"><g><path d="M 29.484375 -1.484375 C 28.398438 -0.804688 27.078125 -0.289062 25.515625 0.0625 C 23.960938 0.425781 22.304688 0.609375 20.546875 0.609375 C 15.753906 0.609375 12.066406 -0.5625 9.484375 -2.90625 C 6.910156 -5.257812 5.625 -8.765625 5.625 -13.421875 L 5.625 -25.765625 L 0.265625 -25.765625 L 0.265625 -35.390625 L 5.625 -35.390625 L 5.625 -44.953125 L 18.515625 -44.953125 L 18.515625 -35.390625 L 26.921875 -35.390625 L 26.921875 -25.765625 L 18.515625 -25.765625 L 18.515625 -13.5625 C 18.515625 -12.25 18.863281 -11.21875 19.5625 -10.46875 C 20.257812 -9.726562 21.195312 -9.359375 22.375 -9.359375 C 23.863281 -9.359375 25.175781 -9.742188 26.3125 -10.515625 Z M 29.484375 -1.484375 "/></g></g></g><g clip-path="url(#cec8139708)"><path fill="#6441a5" d="M 209.234375 178.433594 L 165.699219 178.433594 C 156.113281 178.433594 148.335938 170.65625 148.335938 161.128906 L 148.335938 132.910156 C 148.335938 123.324219 156.113281 115.546875 165.699219 115.546875 L 185.597656 115.546875 L 185.660156 108.914062 C 183.066406 108.128906 181.136719 105.71875 181.136719 102.824219 C 181.136719 99.324219 184.03125 96.492188 187.527344 96.492188 C 191.027344 96.492188 193.917969 99.324219 193.917969 102.824219 C 193.917969 105.71875 191.929688 108.1875 189.277344 108.972656 L 189.214844 115.546875 L 209.234375 115.546875 C 218.761719 115.546875 226.539062 123.324219 226.539062 132.910156 L 226.539062 161.1875 C 226.539062 170.714844 218.761719 178.433594 209.234375 178.433594 Z M 171.128906 151.058594 C 166.003906 151.058594 161.960938 147.019531 161.960938 141.953125 C 161.960938 136.828125 166.003906 132.789062 171.128906 132.789062 C 176.253906 132.789062 180.234375 136.828125 180.234375 141.953125 C 180.234375 147.019531 176.253906 151.058594 171.128906 151.058594 Z M 171.128906 136.40625 C 167.992188 136.40625 165.582031 138.820312 165.582031 141.953125 C 165.582031 145.03125 167.992188 147.441406 171.128906 147.441406 C 174.203125 147.441406 176.675781 145.03125 176.675781 141.953125 C 176.675781 138.820312 174.203125 136.40625 171.128906 136.40625 Z M 203.867188 150.699219 C 198.742188 150.699219 194.644531 146.597656 194.644531 141.53125 C 194.644531 136.46875 198.742188 132.367188 203.867188 132.367188 C 208.875 132.367188 212.972656 136.46875 212.972656 141.53125 C 212.972656 146.597656 208.875 150.699219 203.867188 150.699219 Z M 203.867188 135.984375 C 200.734375 135.984375 198.261719 138.519531 198.261719 141.53125 C 198.261719 144.609375 200.734375 147.140625 203.867188 147.140625 C 206.945312 147.140625 209.355469 144.609375 209.355469 141.53125 C 209.355469 138.398438 206.882812 135.984375 203.867188 135.984375 Z M 186.804688 161.671875 C 183.367188 161.671875 180.351562 160.042969 178.664062 158.597656 C 177.882812 157.933594 177.820312 156.726562 178.484375 156.0625 C 179.148438 155.339844 180.234375 155.21875 181.015625 155.945312 C 181.558594 156.425781 186.804688 160.585938 191.808594 156.003906 C 192.53125 155.339844 193.617188 155.339844 194.402344 156.0625 C 195.066406 156.847656 195.066406 157.933594 194.34375 158.65625 C 191.808594 160.828125 189.214844 161.671875 186.804688 161.671875 Z M 186.804688 161.671875 " fill-opacity="1" fill-rule="evenodd"/></g><g clip-path="url(#e543c9ba19)"><path fill="#6441a5" d="M 144.71875 159.078125 L 143.996094 159.078125 C 139.652344 159.078125 136.035156 155.523438 136.035156 151.121094 L 136.035156 138.820312 C 136.035156 134.417969 139.652344 130.800781 143.996094 130.800781 L 144.839844 130.800781 C 144.777344 131.464844 144.71875 132.1875 144.71875 132.910156 Z M 144.71875 159.078125 " fill-opacity="1" fill-rule="evenodd"/></g><g clip-path="url(#4b81052116)"><path fill="#6441a5" d="M 230.882812 159.078125 L 230.15625 159.078125 L 230.15625 132.910156 C 230.15625 132.125 230.097656 131.402344 230.039062 130.738281 L 230.882812 130.738281 C 235.34375 130.738281 238.960938 134.296875 238.960938 138.757812 L 238.960938 151.121094 C 238.960938 155.582031 235.34375 159.078125 230.882812 159.078125 Z M 230.882812 159.078125 " fill-opacity="1" fill-rule="evenodd"/></g><g fill="#6441a5" fill-opacity="1"><g transform="translate(119.929889, 235.611055)"><g><path d="M 2.109375 -5.265625 L 0.03125 -5.265625 L 0.03125 -6.484375 L 5.6875 -6.484375 L 5.6875 -5.265625 L 3.609375 -5.265625 L 3.609375 0 L 2.109375 0 Z M 2.109375 -5.265625 "/></g></g></g><g fill="#6441a5" fill-opacity="1"><g transform="translate(133.075543, 235.611055)"><g><path d="M 5.796875 -1.203125 L 5.796875 0 L 0.765625 0 L 0.765625 -6.484375 L 5.671875 -6.484375 L 5.671875 -5.28125 L 2.265625 -5.28125 L 2.265625 -3.875 L 5.265625 -3.875 L 5.265625 -2.703125 L 2.265625 -2.703125 L 2.265625 -1.203125 Z M 5.796875 -1.203125 "/></g></g></g><g fill="#6441a5" fill-opacity="1"><g transform="translate(146.712394, 235.611055)"><g><path d="M 3.875 0.109375 C 3.207031 0.109375 2.609375 -0.03125 2.078125 -0.3125 C 1.546875 -0.601562 1.125 -1.003906 0.8125 -1.515625 C 0.507812 -2.023438 0.359375 -2.601562 0.359375 -3.25 C 0.359375 -3.882812 0.507812 -4.457031 0.8125 -4.96875 C 1.125 -5.476562 1.546875 -5.875 2.078125 -6.15625 C 2.609375 -6.445312 3.207031 -6.59375 3.875 -6.59375 C 4.4375 -6.59375 4.945312 -6.492188 5.40625 -6.296875 C 5.863281 -6.097656 6.242188 -5.816406 6.546875 -5.453125 L 5.59375 -4.5625 C 5.144531 -5.0625 4.597656 -5.3125 3.953125 -5.3125 C 3.554688 -5.3125 3.195312 -5.222656 2.875 -5.046875 C 2.5625 -4.878906 2.316406 -4.632812 2.140625 -4.3125 C 1.960938 -4 1.875 -3.644531 1.875 -3.25 C 1.875 -2.84375 1.960938 -2.484375 2.140625 -2.171875 C 2.316406 -1.859375 2.5625 -1.613281 2.875 -1.4375 C 3.195312 -1.257812 3.554688 -1.171875 3.953125 -1.171875 C 4.597656 -1.171875 5.144531 -1.425781 5.59375 -1.9375 L 6.546875 -1.046875 C 6.242188 -0.671875 5.863281 -0.382812 5.40625 -0.1875 C 4.945312 0.0078125 4.4375 0.109375 3.875 0.109375 Z M 3.875 0.109375 "/></g></g></g><g fill="#6441a5" fill-opacity="1"><g transform="translate(160.923847, 235.611055)"><g><path d="M 6.71875 -6.484375 L 6.71875 0 L 5.21875 0 L 5.21875 -2.65625 L 2.265625 -2.65625 L 2.265625 0 L 0.765625 0 L 0.765625 -6.484375 L 2.265625 -6.484375 L 2.265625 -3.921875 L 5.21875 -3.921875 L 5.21875 -6.484375 Z M 6.71875 -6.484375 "/></g></g></g><g fill="#6441a5" fill-opacity="1"><g transform="translate(175.830387, 235.611055)"><g><path d="M 6.71875 -6.484375 L 6.71875 0 L 5.484375 0 L 2.25 -3.9375 L 2.25 0 L 0.765625 0 L 0.765625 -6.484375 L 2.015625 -6.484375 L 5.234375 -2.546875 L 5.234375 -6.484375 Z M 6.71875 -6.484375 "/></g></g></g><g fill="#6441a5" fill-opacity="1"><g transform="translate(190.736927, 235.611055)"><g><path d="M 3.90625 0.109375 C 3.238281 0.109375 2.632812 -0.0351562 2.09375 -0.328125 C 1.550781 -0.617188 1.125 -1.015625 0.8125 -1.515625 C 0.507812 -2.023438 0.359375 -2.601562 0.359375 -3.25 C 0.359375 -3.882812 0.507812 -4.453125 0.8125 -4.953125 C 1.125 -5.460938 1.550781 -5.863281 2.09375 -6.15625 C 2.632812 -6.445312 3.238281 -6.59375 3.90625 -6.59375 C 4.582031 -6.59375 5.1875 -6.445312 5.71875 -6.15625 C 6.257812 -5.863281 6.679688 -5.460938 6.984375 -4.953125 C 7.296875 -4.453125 7.453125 -3.882812 7.453125 -3.25 C 7.453125 -2.601562 7.296875 -2.023438 6.984375 -1.515625 C 6.679688 -1.015625 6.257812 -0.617188 5.71875 -0.328125 C 5.1875 -0.0351562 4.582031 0.109375 3.90625 0.109375 Z M 3.90625 -1.171875 C 4.289062 -1.171875 4.632812 -1.257812 4.9375 -1.4375 C 5.25 -1.613281 5.492188 -1.859375 5.671875 -2.171875 C 5.847656 -2.484375 5.9375 -2.84375 5.9375 -3.25 C 5.9375 -3.644531 5.847656 -4 5.671875 -4.3125 C 5.492188 -4.632812 5.25 -4.878906 4.9375 -5.046875 C 4.632812 -5.222656 4.289062 -5.3125 3.90625 -5.3125 C 3.519531 -5.3125 3.171875 -5.222656 2.859375 -5.046875 C 2.554688 -4.878906 2.316406 -4.632812 2.140625 -4.3125 C 1.960938 -4 1.875 -3.644531 1.875 -3.25 C 1.875 -2.84375 1.960938 -2.484375 2.140625 -2.171875 C 2.316406 -1.859375 2.554688 -1.613281 2.859375 -1.4375 C 3.171875 -1.257812 3.519531 -1.171875 3.90625 -1.171875 Z M 3.90625 -1.171875 "/></g></g></g><g fill="#6441a5" fill-opacity="1"><g transform="translate(205.977108, 235.611055)"><g><path d="M 0.765625 -6.484375 L 2.265625 -6.484375 L 2.265625 -1.21875 L 5.515625 -1.21875 L 5.515625 0 L 0.765625 0 Z M 0.765625 -6.484375 "/></g></g></g><g fill="#6441a5" fill-opacity="1"><g transform="translate(218.993016, 235.611055)"><g><path d="M 3.90625 0.109375 C 3.238281 0.109375 2.632812 -0.0351562 2.09375 -0.328125 C 1.550781 -0.617188 1.125 -1.015625 0.8125 -1.515625 C 0.507812 -2.023438 0.359375 -2.601562 0.359375 -3.25 C 0.359375 -3.882812 0.507812 -4.453125 0.8125 -4.953125 C 1.125 -5.460938 1.550781 -5.863281 2.09375 -6.15625 C 2.632812 -6.445312 3.238281 -6.59375 3.90625 -6.59375 C 4.582031 -6.59375 5.1875 -6.445312 5.71875 -6.15625 C 6.257812 -5.863281 6.679688 -5.460938 6.984375 -4.953125 C 7.296875 -4.453125 7.453125 -3.882812 7.453125 -3.25 C 7.453125 -2.601562 7.296875 -2.023438 6.984375 -1.515625 C 6.679688 -1.015625 6.257812 -0.617188 5.71875 -0.328125 C 5.1875 -0.0351562 4.582031 0.109375 3.90625 0.109375 Z M 3.90625 -1.171875 C 4.289062 -1.171875 4.632812 -1.257812 4.9375 -1.4375 C 5.25 -1.613281 5.492188 -1.859375 5.671875 -2.171875 C 5.847656 -2.484375 5.9375 -2.84375 5.9375 -3.25 C 5.9375 -3.644531 5.847656 -4 5.671875 -4.3125 C 5.492188 -4.632812 5.25 -4.878906 4.9375 -5.046875 C 4.632812 -5.222656 4.289062 -5.3125 3.90625 -5.3125 C 3.519531 -5.3125 3.171875 -5.222656 2.859375 -5.046875 C 2.554688 -4.878906 2.316406 -4.632812 2.140625 -4.3125 C 1.960938 -4 1.875 -3.644531 1.875 -3.25 C 1.875 -2.84375 1.960938 -2.484375 2.140625 -2.171875 C 2.316406 -1.859375 2.554688 -1.613281 2.859375 -1.4375 C 3.171875 -1.257812 3.519531 -1.171875 3.90625 -1.171875 Z M 3.90625 -1.171875 "/></g></g></g><g fill="#6441a5" fill-opacity="1"><g transform="translate(234.233198, 235.611055)"><g><path d="M 5.15625 -3.34375 L 6.515625 -3.34375 L 6.515625 -0.71875 C 6.171875 -0.445312 5.765625 -0.238281 5.296875 -0.09375 C 4.835938 0.0390625 4.375 0.109375 3.90625 0.109375 C 3.226562 0.109375 2.617188 -0.03125 2.078125 -0.3125 C 1.546875 -0.601562 1.125 -1.003906 0.8125 -1.515625 C 0.507812 -2.023438 0.359375 -2.601562 0.359375 -3.25 C 0.359375 -3.882812 0.507812 -4.457031 0.8125 -4.96875 C 1.125 -5.476562 1.550781 -5.875 2.09375 -6.15625 C 2.632812 -6.445312 3.242188 -6.59375 3.921875 -6.59375 C 4.492188 -6.59375 5.007812 -6.492188 5.46875 -6.296875 C 5.9375 -6.109375 6.328125 -5.832031 6.640625 -5.46875 L 5.6875 -4.59375 C 5.21875 -5.070312 4.65625 -5.3125 4 -5.3125 C 3.582031 -5.3125 3.210938 -5.222656 2.890625 -5.046875 C 2.578125 -4.878906 2.328125 -4.640625 2.140625 -4.328125 C 1.960938 -4.015625 1.875 -3.65625 1.875 -3.25 C 1.875 -2.84375 1.960938 -2.484375 2.140625 -2.171875 C 2.328125 -1.859375 2.578125 -1.613281 2.890625 -1.4375 C 3.210938 -1.257812 3.578125 -1.171875 3.984375 -1.171875 C 4.421875 -1.171875 4.8125 -1.265625 5.15625 -1.453125 Z M 5.15625 -3.34375 "/></g></g></g><g fill="#6441a5" fill-opacity="1"><g transform="translate(248.796832, 235.611055)"><g><path d="M 3.875 -2.296875 L 3.875 0 L 2.375 0 L 2.375 -2.3125 L -0.125 -6.484375 L 1.46875 -6.484375 L 3.203125 -3.609375 L 4.921875 -6.484375 L 6.40625 -6.484375 Z M 3.875 -2.296875 "/></g></g></g></svg>