<svg xmlns="http://www.w3.org/2000/svg" xmlns:xlink="http://www.w3.org/1999/xlink" width="500" zoomAndPan="magnify" viewBox="0 0 375 374.999991" height="500" preserveAspectRatio="xMidYMid meet" version="1.0"><defs><g/><clipPath id="cb9b2bc991"><path d="M 31 146.519531 L 110 146.519531 L 110 228.269531 L 31 228.269531 Z M 31 146.519531 " clip-rule="nonzero"/></clipPath><clipPath id="5bab36e24c"><path d="M 18.988281 180 L 28 180 L 28 210 L 18.988281 210 Z M 18.988281 180 " clip-rule="nonzero"/></clipPath><clipPath id="9f9bdbf07a"><path d="M 112 180 L 121.738281 180 L 121.738281 210 L 112 210 Z M 112 180 " clip-rule="nonzero"/></clipPath></defs><g fill="#6441a5" fill-opacity="1"><g transform="translate(134.118592, 216.123737)"><g><path d="M 21.421875 0.953125 C 17.578125 0.953125 13.847656 0.476562 10.234375 -0.46875 C 6.617188 -1.414062 3.679688 -2.679688 1.421875 -4.265625 L 5.828125 -14.171875 C 7.953125 -12.765625 10.414062 -11.628906 13.21875 -10.765625 C 16.019531 -9.910156 18.773438 -9.484375 21.484375 -9.484375 C 26.640625 -9.484375 29.21875 -10.773438 29.21875 -13.359375 C 29.21875 -14.710938 28.484375 -15.71875 27.015625 -16.375 C 25.546875 -17.03125 23.1875 -17.71875 19.9375 -18.4375 C 16.363281 -19.207031 13.378906 -20.03125 10.984375 -20.90625 C 8.585938 -21.789062 6.53125 -23.203125 4.8125 -25.140625 C 3.09375 -27.085938 2.234375 -29.710938 2.234375 -33.015625 C 2.234375 -35.910156 3.023438 -38.519531 4.609375 -40.84375 C 6.191406 -43.175781 8.550781 -45.019531 11.6875 -46.375 C 14.832031 -47.726562 18.6875 -48.40625 23.25 -48.40625 C 26.375 -48.40625 29.445312 -48.054688 32.46875 -47.359375 C 35.5 -46.660156 38.164062 -45.628906 40.46875 -44.265625 L 36.34375 -34.3125 C 31.820312 -36.75 27.4375 -37.96875 23.1875 -37.96875 C 20.519531 -37.96875 18.578125 -37.570312 17.359375 -36.78125 C 16.140625 -35.988281 15.53125 -34.957031 15.53125 -33.6875 C 15.53125 -32.425781 16.25 -31.476562 17.6875 -30.84375 C 19.132812 -30.21875 21.460938 -29.5625 24.671875 -28.875 C 28.296875 -28.113281 31.289062 -27.289062 33.65625 -26.40625 C 36.03125 -25.519531 38.085938 -24.117188 39.828125 -22.203125 C 41.566406 -20.285156 42.4375 -17.675781 42.4375 -14.375 C 42.4375 -11.53125 41.644531 -8.953125 40.0625 -6.640625 C 38.476562 -4.335938 36.101562 -2.492188 32.9375 -1.109375 C 29.78125 0.265625 25.941406 0.953125 21.421875 0.953125 Z M 21.421875 0.953125 "/></g></g></g><g fill="#6441a5" fill-opacity="1"><g transform="translate(172.420989, 216.123737)"><g><path d="M 52 -37.359375 C 56.519531 -37.359375 60.125 -36 62.8125 -33.28125 C 65.5 -30.570312 66.84375 -26.484375 66.84375 -21.015625 L 66.84375 0 L 53.96875 0 L 53.96875 -18.921875 C 53.96875 -21.492188 53.476562 -23.390625 52.5 -24.609375 C 51.53125 -25.828125 50.164062 -26.4375 48.40625 -26.4375 C 46.457031 -26.4375 44.894531 -25.757812 43.71875 -24.40625 C 42.550781 -23.050781 41.96875 -20.992188 41.96875 -18.234375 L 41.96875 0 L 29.078125 0 L 29.078125 -18.921875 C 29.078125 -23.929688 27.226562 -26.4375 23.53125 -26.4375 C 21.539062 -26.4375 19.957031 -25.757812 18.78125 -24.40625 C 17.601562 -23.050781 17.015625 -20.992188 17.015625 -18.234375 L 17.015625 0 L 4.140625 0 L 4.140625 -36.75 L 16.40625 -36.75 L 16.40625 -32.875 C 17.757812 -34.375 19.375 -35.492188 21.25 -36.234375 C 23.125 -36.984375 25.171875 -37.359375 27.390625 -37.359375 C 29.960938 -37.359375 32.265625 -36.882812 34.296875 -35.9375 C 36.335938 -34.988281 37.988281 -33.539062 39.25 -31.59375 C 40.695312 -33.445312 42.523438 -34.867188 44.734375 -35.859375 C 46.953125 -36.859375 49.375 -37.359375 52 -37.359375 Z M 52 -37.359375 "/></g></g></g><g fill="#6441a5" fill-opacity="1"><g transform="translate(237.705007, 216.123737)"><g><path d="M 19.796875 -37.359375 C 25.898438 -37.359375 30.554688 -35.96875 33.765625 -33.1875 C 36.972656 -30.40625 38.578125 -26.144531 38.578125 -20.40625 L 38.578125 0 L 26.578125 0 L 26.578125 -4.75 C 24.722656 -1.175781 21.109375 0.609375 15.734375 0.609375 C 12.878906 0.609375 10.410156 0.113281 8.328125 -0.875 C 6.253906 -1.875 4.6875 -3.21875 3.625 -4.90625 C 2.5625 -6.601562 2.03125 -8.539062 2.03125 -10.71875 C 2.03125 -14.195312 3.363281 -16.894531 6.03125 -18.8125 C 8.695312 -20.726562 12.8125 -21.6875 18.375 -21.6875 L 25.6875 -21.6875 C 25.46875 -25.582031 22.867188 -27.53125 17.890625 -27.53125 C 16.128906 -27.53125 14.34375 -27.242188 12.53125 -26.671875 C 10.726562 -26.109375 9.195312 -25.332031 7.9375 -24.34375 L 3.59375 -33.078125 C 5.625 -34.441406 8.097656 -35.492188 11.015625 -36.234375 C 13.929688 -36.984375 16.859375 -37.359375 19.796875 -37.359375 Z M 19.328125 -7.53125 C 20.816406 -7.53125 22.125 -7.890625 23.25 -8.609375 C 24.382812 -9.328125 25.195312 -10.390625 25.6875 -11.796875 L 25.6875 -14.984375 L 20.140625 -14.984375 C 16.390625 -14.984375 14.515625 -13.738281 14.515625 -11.25 C 14.515625 -10.125 14.941406 -9.222656 15.796875 -8.546875 C 16.648438 -7.867188 17.828125 -7.53125 19.328125 -7.53125 Z M 19.328125 -7.53125 "/></g></g></g><g fill="#6441a5" fill-opacity="1"><g transform="translate(274.719341, 216.123737)"><g><path d="M 16.40625 -32.34375 C 17.71875 -34.007812 19.421875 -35.257812 21.515625 -36.09375 C 23.617188 -36.9375 26.03125 -37.359375 28.75 -37.359375 L 28.75 -25.765625 C 27.570312 -25.898438 26.597656 -25.96875 25.828125 -25.96875 C 23.066406 -25.96875 20.90625 -25.21875 19.34375 -23.71875 C 17.789062 -22.226562 17.015625 -19.945312 17.015625 -16.875 L 17.015625 0 L 4.140625 0 L 4.140625 -36.75 L 16.40625 -36.75 Z M 16.40625 -32.34375 "/></g></g></g><g fill="#6441a5" fill-opacity="1"><g transform="translate(299.191969, 216.123737)"><g><path d="M 29.484375 -1.484375 C 28.398438 -0.804688 27.078125 -0.289062 25.515625 0.0625 C 23.960938 0.425781 22.304688 0.609375 20.546875 0.609375 C 15.753906 0.609375 12.066406 -0.5625 9.484375 -2.90625 C 6.910156 -5.257812 5.625 -8.765625 5.625 -13.421875 L 5.625 -25.765625 L 0.265625 -25.765625 L 0.265625 -35.390625 L 5.625 -35.390625 L 5.625 -44.953125 L 18.515625 -44.953125 L 18.515625 -35.390625 L 26.921875 -35.390625 L 26.921875 -25.765625 L 18.515625 -25.765625 L 18.515625 -13.5625 C 18.515625 -12.25 18.863281 -11.21875 19.5625 -10.46875 C 20.257812 -9.726562 21.195312 -9.359375 22.375 -9.359375 C 23.863281 -9.359375 25.175781 -9.742188 26.3125 -10.515625 Z M 29.484375 -1.484375 "/></g></g></g><g clip-path="url(#cb9b2bc991)"><path fill="#6441a5" d="M 92.1875 228.46875 L 48.65625 228.46875 C 39.066406 228.46875 31.289062 220.6875 31.289062 211.164062 L 31.289062 182.945312 C 31.289062 173.355469 39.066406 165.578125 48.65625 165.578125 L 68.550781 165.578125 L 68.613281 158.945312 C 66.019531 158.160156 64.089844 155.75 64.089844 152.855469 C 64.089844 149.359375 66.984375 146.523438 70.480469 146.523438 C 73.980469 146.523438 76.875 149.359375 76.875 152.855469 C 76.875 155.75 74.882812 158.222656 72.230469 159.003906 L 72.171875 165.578125 L 92.1875 165.578125 C 101.714844 165.578125 109.492188 173.355469 109.492188 182.945312 L 109.492188 211.222656 C 109.492188 220.75 101.714844 228.46875 92.1875 228.46875 Z M 54.082031 201.09375 C 48.957031 201.09375 44.917969 197.054688 44.917969 191.988281 C 44.917969 186.863281 48.957031 182.824219 54.082031 182.824219 C 59.207031 182.824219 63.1875 186.863281 63.1875 191.988281 C 63.1875 197.054688 59.207031 201.09375 54.082031 201.09375 Z M 54.082031 186.441406 C 50.945312 186.441406 48.535156 188.851562 48.535156 191.988281 C 48.535156 195.0625 50.945312 197.476562 54.082031 197.476562 C 57.15625 197.476562 59.628906 195.0625 59.628906 191.988281 C 59.628906 188.851562 57.15625 186.441406 54.082031 186.441406 Z M 86.820312 200.730469 C 81.695312 200.730469 77.597656 196.628906 77.597656 191.566406 C 77.597656 186.5 81.695312 182.402344 86.820312 182.402344 C 91.828125 182.402344 95.925781 186.5 95.925781 191.566406 C 95.925781 196.628906 91.828125 200.730469 86.820312 200.730469 Z M 86.820312 186.019531 C 83.6875 186.019531 81.214844 188.550781 81.214844 191.566406 C 81.214844 194.640625 83.6875 197.171875 86.820312 197.171875 C 89.898438 197.171875 92.308594 194.640625 92.308594 191.566406 C 92.308594 188.429688 89.835938 186.019531 86.820312 186.019531 Z M 69.757812 211.703125 C 66.320312 211.703125 63.304688 210.078125 61.617188 208.628906 C 60.835938 207.964844 60.773438 206.761719 61.4375 206.097656 C 62.101562 205.375 63.1875 205.253906 63.96875 205.976562 C 64.511719 206.460938 69.757812 210.621094 74.761719 206.035156 C 75.488281 205.375 76.570312 205.375 77.355469 206.097656 C 78.019531 206.882812 78.019531 207.964844 77.296875 208.691406 C 74.761719 210.859375 72.171875 211.703125 69.757812 211.703125 Z M 69.757812 211.703125 " fill-opacity="1" fill-rule="evenodd"/></g><g clip-path="url(#5bab36e24c)"><path fill="#6441a5" d="M 27.671875 209.113281 L 26.949219 209.113281 C 22.605469 209.113281 18.988281 205.554688 18.988281 201.152344 L 18.988281 188.851562 C 18.988281 184.449219 22.605469 180.832031 26.949219 180.832031 L 27.792969 180.832031 C 27.730469 181.496094 27.671875 182.21875 27.671875 182.945312 Z M 27.671875 209.113281 " fill-opacity="1" fill-rule="evenodd"/></g><g clip-path="url(#9f9bdbf07a)"><path fill="#6441a5" d="M 113.835938 209.113281 L 113.113281 209.113281 L 113.113281 182.945312 C 113.113281 182.160156 113.050781 181.4375 112.992188 180.773438 L 113.835938 180.773438 C 118.296875 180.773438 121.914062 184.332031 121.914062 188.792969 L 121.914062 201.152344 C 121.914062 205.613281 118.296875 209.113281 113.835938 209.113281 Z M 113.835938 209.113281 " fill-opacity="1" fill-rule="evenodd"/></g><g fill="#6441a5" fill-opacity="1"><g transform="translate(170.213973, 230.093357)"><g><path d="M 2.109375 -5.265625 L 0.03125 -5.265625 L 0.03125 -6.484375 L 5.6875 -6.484375 L 5.6875 -5.265625 L 3.609375 -5.265625 L 3.609375 0 L 2.109375 0 Z M 2.109375 -5.265625 "/></g></g></g><g fill="#6441a5" fill-opacity="1"><g transform="translate(183.359627, 230.093357)"><g><path d="M 5.796875 -1.203125 L 5.796875 0 L 0.765625 0 L 0.765625 -6.484375 L 5.671875 -6.484375 L 5.671875 -5.28125 L 2.265625 -5.28125 L 2.265625 -3.875 L 5.265625 -3.875 L 5.265625 -2.703125 L 2.265625 -2.703125 L 2.265625 -1.203125 Z M 5.796875 -1.203125 "/></g></g></g><g fill="#6441a5" fill-opacity="1"><g transform="translate(196.996478, 230.093357)"><g><path d="M 3.875 0.109375 C 3.207031 0.109375 2.609375 -0.03125 2.078125 -0.3125 C 1.546875 -0.601562 1.125 -1.003906 0.8125 -1.515625 C 0.507812 -2.023438 0.359375 -2.601562 0.359375 -3.25 C 0.359375 -3.882812 0.507812 -4.457031 0.8125 -4.96875 C 1.125 -5.476562 1.546875 -5.875 2.078125 -6.15625 C 2.609375 -6.445312 3.207031 -6.59375 3.875 -6.59375 C 4.4375 -6.59375 4.945312 -6.492188 5.40625 -6.296875 C 5.863281 -6.097656 6.242188 -5.816406 6.546875 -5.453125 L 5.59375 -4.5625 C 5.144531 -5.0625 4.597656 -5.3125 3.953125 -5.3125 C 3.554688 -5.3125 3.195312 -5.222656 2.875 -5.046875 C 2.5625 -4.878906 2.316406 -4.632812 2.140625 -4.3125 C 1.960938 -4 1.875 -3.644531 1.875 -3.25 C 1.875 -2.84375 1.960938 -2.484375 2.140625 -2.171875 C 2.316406 -1.859375 2.5625 -1.613281 2.875 -1.4375 C 3.195312 -1.257812 3.554688 -1.171875 3.953125 -1.171875 C 4.597656 -1.171875 5.144531 -1.425781 5.59375 -1.9375 L 6.546875 -1.046875 C 6.242188 -0.671875 5.863281 -0.382812 5.40625 -0.1875 C 4.945312 0.0078125 4.4375 0.109375 3.875 0.109375 Z M 3.875 0.109375 "/></g></g></g><g fill="#6441a5" fill-opacity="1"><g transform="translate(211.207931, 230.093357)"><g><path d="M 6.71875 -6.484375 L 6.71875 0 L 5.21875 0 L 5.21875 -2.65625 L 2.265625 -2.65625 L 2.265625 0 L 0.765625 0 L 0.765625 -6.484375 L 2.265625 -6.484375 L 2.265625 -3.921875 L 5.21875 -3.921875 L 5.21875 -6.484375 Z M 6.71875 -6.484375 "/></g></g></g><g fill="#6441a5" fill-opacity="1"><g transform="translate(226.114471, 230.093357)"><g><path d="M 6.71875 -6.484375 L 6.71875 0 L 5.484375 0 L 2.25 -3.9375 L 2.25 0 L 0.765625 0 L 0.765625 -6.484375 L 2.015625 -6.484375 L 5.234375 -2.546875 L 5.234375 -6.484375 Z M 6.71875 -6.484375 "/></g></g></g><g fill="#6441a5" fill-opacity="1"><g transform="translate(241.02101, 230.093357)"><g><path d="M 3.90625 0.109375 C 3.238281 0.109375 2.632812 -0.0351562 2.09375 -0.328125 C 1.550781 -0.617188 1.125 -1.015625 0.8125 -1.515625 C 0.507812 -2.023438 0.359375 -2.601562 0.359375 -3.25 C 0.359375 -3.882812 0.507812 -4.453125 0.8125 -4.953125 C 1.125 -5.460938 1.550781 -5.863281 2.09375 -6.15625 C 2.632812 -6.445312 3.238281 -6.59375 3.90625 -6.59375 C 4.582031 -6.59375 5.1875 -6.445312 5.71875 -6.15625 C 6.257812 -5.863281 6.679688 -5.460938 6.984375 -4.953125 C 7.296875 -4.453125 7.453125 -3.882812 7.453125 -3.25 C 7.453125 -2.601562 7.296875 -2.023438 6.984375 -1.515625 C 6.679688 -1.015625 6.257812 -0.617188 5.71875 -0.328125 C 5.1875 -0.0351562 4.582031 0.109375 3.90625 0.109375 Z M 3.90625 -1.171875 C 4.289062 -1.171875 4.632812 -1.257812 4.9375 -1.4375 C 5.25 -1.613281 5.492188 -1.859375 5.671875 -2.171875 C 5.847656 -2.484375 5.9375 -2.84375 5.9375 -3.25 C 5.9375 -3.644531 5.847656 -4 5.671875 -4.3125 C 5.492188 -4.632812 5.25 -4.878906 4.9375 -5.046875 C 4.632812 -5.222656 4.289062 -5.3125 3.90625 -5.3125 C 3.519531 -5.3125 3.171875 -5.222656 2.859375 -5.046875 C 2.554688 -4.878906 2.316406 -4.632812 2.140625 -4.3125 C 1.960938 -4 1.875 -3.644531 1.875 -3.25 C 1.875 -2.84375 1.960938 -2.484375 2.140625 -2.171875 C 2.316406 -1.859375 2.554688 -1.613281 2.859375 -1.4375 C 3.171875 -1.257812 3.519531 -1.171875 3.90625 -1.171875 Z M 3.90625 -1.171875 "/></g></g></g><g fill="#6441a5" fill-opacity="1"><g transform="translate(256.261192, 230.093357)"><g><path d="M 0.765625 -6.484375 L 2.265625 -6.484375 L 2.265625 -1.21875 L 5.515625 -1.21875 L 5.515625 0 L 0.765625 0 Z M 0.765625 -6.484375 "/></g></g></g><g fill="#6441a5" fill-opacity="1"><g transform="translate(269.2771, 230.093357)"><g><path d="M 3.90625 0.109375 C 3.238281 0.109375 2.632812 -0.0351562 2.09375 -0.328125 C 1.550781 -0.617188 1.125 -1.015625 0.8125 -1.515625 C 0.507812 -2.023438 0.359375 -2.601562 0.359375 -3.25 C 0.359375 -3.882812 0.507812 -4.453125 0.8125 -4.953125 C 1.125 -5.460938 1.550781 -5.863281 2.09375 -6.15625 C 2.632812 -6.445312 3.238281 -6.59375 3.90625 -6.59375 C 4.582031 -6.59375 5.1875 -6.445312 5.71875 -6.15625 C 6.257812 -5.863281 6.679688 -5.460938 6.984375 -4.953125 C 7.296875 -4.453125 7.453125 -3.882812 7.453125 -3.25 C 7.453125 -2.601562 7.296875 -2.023438 6.984375 -1.515625 C 6.679688 -1.015625 6.257812 -0.617188 5.71875 -0.328125 C 5.1875 -0.0351562 4.582031 0.109375 3.90625 0.109375 Z M 3.90625 -1.171875 C 4.289062 -1.171875 4.632812 -1.257812 4.9375 -1.4375 C 5.25 -1.613281 5.492188 -1.859375 5.671875 -2.171875 C 5.847656 -2.484375 5.9375 -2.84375 5.9375 -3.25 C 5.9375 -3.644531 5.847656 -4 5.671875 -4.3125 C 5.492188 -4.632812 5.25 -4.878906 4.9375 -5.046875 C 4.632812 -5.222656 4.289062 -5.3125 3.90625 -5.3125 C 3.519531 -5.3125 3.171875 -5.222656 2.859375 -5.046875 C 2.554688 -4.878906 2.316406 -4.632812 2.140625 -4.3125 C 1.960938 -4 1.875 -3.644531 1.875 -3.25 C 1.875 -2.84375 1.960938 -2.484375 2.140625 -2.171875 C 2.316406 -1.859375 2.554688 -1.613281 2.859375 -1.4375 C 3.171875 -1.257812 3.519531 -1.171875 3.90625 -1.171875 Z M 3.90625 -1.171875 "/></g></g></g><g fill="#6441a5" fill-opacity="1"><g transform="translate(284.517282, 230.093357)"><g><path d="M 5.15625 -3.34375 L 6.515625 -3.34375 L 6.515625 -0.71875 C 6.171875 -0.445312 5.765625 -0.238281 5.296875 -0.09375 C 4.835938 0.0390625 4.375 0.109375 3.90625 0.109375 C 3.226562 0.109375 2.617188 -0.03125 2.078125 -0.3125 C 1.546875 -0.601562 1.125 -1.003906 0.8125 -1.515625 C 0.507812 -2.023438 0.359375 -2.601562 0.359375 -3.25 C 0.359375 -3.882812 0.507812 -4.457031 0.8125 -4.96875 C 1.125 -5.476562 1.550781 -5.875 2.09375 -6.15625 C 2.632812 -6.445312 3.242188 -6.59375 3.921875 -6.59375 C 4.492188 -6.59375 5.007812 -6.492188 5.46875 -6.296875 C 5.9375 -6.109375 6.328125 -5.832031 6.640625 -5.46875 L 5.6875 -4.59375 C 5.21875 -5.070312 4.65625 -5.3125 4 -5.3125 C 3.582031 -5.3125 3.210938 -5.222656 2.890625 -5.046875 C 2.578125 -4.878906 2.328125 -4.640625 2.140625 -4.328125 C 1.960938 -4.015625 1.875 -3.65625 1.875 -3.25 C 1.875 -2.84375 1.960938 -2.484375 2.140625 -2.171875 C 2.328125 -1.859375 2.578125 -1.613281 2.890625 -1.4375 C 3.210938 -1.257812 3.578125 -1.171875 3.984375 -1.171875 C 4.421875 -1.171875 4.8125 -1.265625 5.15625 -1.453125 Z M 5.15625 -3.34375 "/></g></g></g><g fill="#6441a5" fill-opacity="1"><g transform="translate(299.080916, 230.093357)"><g><path d="M 3.875 -2.296875 L 3.875 0 L 2.375 0 L 2.375 -2.3125 L -0.125 -6.484375 L 1.46875 -6.484375 L 3.203125 -3.609375 L 4.921875 -6.484375 L 6.40625 -6.484375 Z M 3.875 -2.296875 "/></g></g></g></svg>